<svg width="98" height="40" viewBox="0 0 98 40" fill="none" xmlns="http://www.w3.org/2000/svg">
<path d="M1.952 32V8.96H5.472V32H1.952ZM14.8295 32.32C13.3362 32.32 11.9815 31.968 10.7655 31.264C9.5495 30.5387 8.57883 29.568 7.8535 28.352C7.1495 27.136 6.7975 25.7813 6.7975 24.288C6.7975 22.7947 7.1495 21.4507 7.8535 20.256C8.57883 19.0613 9.5495 18.112 10.7655 17.408C11.9815 16.6827 13.3362 16.32 14.8295 16.32C16.3442 16.32 17.7095 16.672 18.9255 17.376C20.1415 18.08 21.1015 19.04 21.8055 20.256C22.5308 21.4507 22.8935 22.7947 22.8935 24.288C22.8935 25.7813 22.5308 27.136 21.8055 28.352C21.1015 29.568 20.1415 30.5387 18.9255 31.264C17.7095 31.968 16.3442 32.32 14.8295 32.32ZM14.8295 28.928C15.7042 28.928 16.4722 28.736 17.1335 28.352C17.8162 27.9467 18.3388 27.392 18.7015 26.688C19.0855 25.984 19.2775 25.184 19.2775 24.288C19.2775 23.392 19.0855 22.6027 18.7015 21.92C18.3175 21.2373 17.7948 20.704 17.1335 20.32C16.4722 19.9147 15.7042 19.712 14.8295 19.712C13.9762 19.712 13.2082 19.9147 12.5255 20.32C11.8642 20.704 11.3415 21.2373 10.9575 21.92C10.5948 22.6027 10.4135 23.392 10.4135 24.288C10.4135 25.184 10.5948 25.984 10.9575 26.688C11.3415 27.392 11.8642 27.9467 12.5255 28.352C13.2082 28.736 13.9762 28.928 14.8295 28.928ZM31.5808 38.72C29.9594 38.72 28.5408 38.4213 27.3248 37.824C26.1088 37.248 25.1274 36.4267 24.3808 35.36L26.6848 33.056C27.3034 33.824 28.0074 34.4 28.7968 34.784C29.5861 35.168 30.5354 35.36 31.6448 35.36C33.0314 35.36 34.1301 34.9973 34.9408 34.272C35.7514 33.568 36.1568 32.5973 36.1568 31.36V27.584L36.7648 24.192L36.1568 20.768V16.64H39.6768V31.36C39.6768 32.832 39.3354 34.112 38.6528 35.2C37.9701 36.3093 37.0208 37.1733 35.8048 37.792C34.5888 38.4107 33.1808 38.72 31.5808 38.72ZM31.4208 31.68C30.0554 31.68 28.8181 31.3493 27.7088 30.688C26.6208 30.0053 25.7568 29.0773 25.1168 27.904C24.4981 26.7307 24.1888 25.4187 24.1888 23.968C24.1888 22.5173 24.4981 21.216 25.1168 20.064C25.7568 18.912 26.6208 18.0053 27.7088 17.344C28.8181 16.6613 30.0554 16.32 31.4208 16.32C32.6368 16.32 33.7034 16.5653 34.6208 17.056C35.5381 17.5467 36.2528 18.2293 36.7648 19.104C37.2768 19.9573 37.5328 20.96 37.5328 22.112V25.888C37.5328 27.0187 37.2661 28.0213 36.7328 28.896C36.2208 29.7707 35.5061 30.4533 34.5888 30.944C33.6714 31.4347 32.6154 31.68 31.4208 31.68ZM32.1248 28.352C32.9781 28.352 33.7248 28.1707 34.3648 27.808C35.0048 27.4453 35.4954 26.944 35.8368 26.304C36.1994 25.6427 36.3808 24.8747 36.3808 24C36.3808 23.1253 36.1994 22.368 35.8368 21.728C35.4954 21.0667 35.0048 20.5547 34.3648 20.192C33.7248 19.8293 32.9781 19.648 32.1248 19.648C31.2714 19.648 30.5141 19.8293 29.8528 20.192C29.2128 20.5547 28.7114 21.0667 28.3488 21.728C27.9861 22.368 27.8048 23.1253 27.8048 24C27.8048 24.8533 27.9861 25.6107 28.3488 26.272C28.7114 26.9333 29.2128 27.4453 29.8528 27.808C30.5141 28.1707 31.2714 28.352 32.1248 28.352ZM49.123 32.32C47.587 32.32 46.2003 31.9787 44.963 31.296C43.747 30.592 42.7763 29.632 42.051 28.416C41.347 27.2 40.995 25.8347 40.995 24.32C40.995 22.8053 41.347 21.4507 42.051 20.256C42.755 19.04 43.7043 18.08 44.899 17.376C46.115 16.672 47.459 16.32 48.931 16.32C50.3603 16.32 51.619 16.6507 52.707 17.312C53.8163 17.9733 54.6803 18.88 55.299 20.032C55.939 21.184 56.259 22.496 56.259 23.968C56.259 24.224 56.2377 24.4907 56.195 24.768C56.1737 25.024 56.131 25.312 56.067 25.632H43.459V22.752H54.243L52.931 23.904C52.8883 22.9653 52.707 22.176 52.387 21.536C52.067 20.896 51.6083 20.4053 51.011 20.064C50.435 19.7227 49.7203 19.552 48.867 19.552C47.971 19.552 47.1923 19.744 46.531 20.128C45.8697 20.512 45.3577 21.056 44.995 21.76C44.6323 22.4427 44.451 23.264 44.451 24.224C44.451 25.184 44.643 26.0267 45.027 26.752C45.411 27.4773 45.955 28.0427 46.659 28.448C47.363 28.832 48.1737 29.024 49.091 29.024C49.8803 29.024 50.6057 28.8853 51.267 28.608C51.9497 28.3307 52.5257 27.9253 52.995 27.392L55.235 29.664C54.4883 30.5387 53.5817 31.2 52.515 31.648C51.4483 32.096 50.3177 32.32 49.123 32.32ZM64.8728 32.32C63.4861 32.32 62.2274 31.968 61.0968 31.264C59.9874 30.56 59.1021 29.6107 58.4408 28.416C57.8008 27.2 57.4808 25.8453 57.4808 24.352C57.4808 22.8373 57.8008 21.4827 58.4408 20.288C59.1021 19.072 59.9874 18.112 61.0968 17.408C62.2274 16.6827 63.4861 16.32 64.8728 16.32C66.0461 16.32 67.0808 16.576 67.9768 17.088C68.8941 17.5787 69.6194 18.2613 70.1528 19.136C70.6861 20.0107 70.9528 21.0027 70.9528 22.112V26.528C70.9528 27.6373 70.6861 28.6293 70.1528 29.504C69.6408 30.3787 68.9261 31.072 68.0088 31.584C67.0914 32.0747 66.0461 32.32 64.8728 32.32ZM65.4488 28.992C66.3234 28.992 67.0808 28.8 67.7208 28.416C68.3821 28.0107 68.8941 27.456 69.2568 26.752C69.6194 26.048 69.8008 25.2373 69.8008 24.32C69.8008 23.4027 69.6194 22.592 69.2568 21.888C68.8941 21.184 68.3821 20.64 67.7208 20.256C67.0808 19.8507 66.3234 19.648 65.4488 19.648C64.5954 19.648 63.8381 19.8507 63.1768 20.256C62.5368 20.64 62.0248 21.184 61.6408 21.888C61.2781 22.592 61.0968 23.4027 61.0968 24.32C61.0968 25.2373 61.2781 26.048 61.6408 26.752C62.0248 27.456 62.5368 28.0107 63.1768 28.416C63.8381 28.8 64.5954 28.992 65.4488 28.992ZM73.0968 32H69.5768V27.872L70.1848 24.128L69.5768 20.416V8.96H73.0968V32Z" fill="#1B3C53"/>
<path d="M75.984 32V16.64H79.504V32H75.984ZM77.744 13.824C77.1467 13.824 76.6453 13.6213 76.24 13.216C75.856 12.8107 75.664 12.3093 75.664 11.712C75.664 11.1147 75.856 10.6133 76.24 10.208C76.6453 9.80267 77.1467 9.6 77.744 9.6C78.3627 9.6 78.864 9.80267 79.248 10.208C79.632 10.6133 79.824 11.1147 79.824 11.712C79.824 12.3093 79.632 12.8107 79.248 13.216C78.864 13.6213 78.3627 13.824 77.744 13.824ZM92.38 32V23.136C92.38 22.112 92.0493 21.2693 91.388 20.608C90.748 19.9467 89.916 19.616 88.892 19.616C88.2093 19.616 87.6013 19.7653 87.068 20.064C86.5347 20.3627 86.1187 20.7787 85.82 21.312C85.5213 21.8453 85.372 22.4533 85.372 23.136L83.996 22.368C83.996 21.1947 84.252 20.16 84.764 19.264C85.276 18.3467 85.98 17.632 86.876 17.12C87.7933 16.5867 88.8173 16.32 89.948 16.32C91.1 16.32 92.124 16.6187 93.02 17.216C93.916 17.792 94.62 18.5493 95.132 19.488C95.644 20.4053 95.9 21.3653 95.9 22.368V32H92.38ZM81.852 32V16.64H85.372V32H81.852Z" fill="#3C82F6"/>
</svg>
